<?xml version="1.0" encoding="UTF-8"?>
<svg version="1.1" xmlns="http://www.w3.org/2000/svg" width="32" height="32">
<path d="M0 0 C0.474375 0.495 0.94875 0.99 1.4375 1.5 C2.75923698 3.11542197 2.75923698 3.11542197 4 3 C4 8.61 4 14.22 4 20 C4.99 20 5.98 20 7 20 C7 23.3 7 26.6 7 30 C-2.9 30 -12.8 30 -23 30 C-23 29.67 -23 29.34 -23 29 C-21.35 28.67 -19.7 28.34 -18 28 C-18 27.34 -18 26.68 -18 26 C-19.65 25.67 -21.3 25.34 -23 25 C-23 19.06 -23 13.12 -23 7 C-16.73 7 -10.46 7 -4 7 C-3.67 5.68 -3.34 4.36 -3 3 C-2.34 3.33 -1.68 3.66 -1 4 C-0.67 2.68 -0.34 1.36 0 0 Z " fill="#A79489" transform="translate(24,0)"/>
<path d="M0 0 C5.94 0 11.88 0 18 0 C18 3.96 18 7.92 18 12 C17.34 12 16.68 12 16 12 C16 13.32 16 14.64 16 16 C10.72 16 5.44 16 0 16 C0 10.72 0 5.44 0 0 Z " fill="#D8EEFB" transform="translate(2,8)"/>
<path d="M0 0 C3 0 3 0 6 1 C6 5.29 6 9.58 6 14 C3.69 14 1.38 14 -1 14 C-1.02694851 12.04174127 -1.04637218 10.08337774 -1.0625 8.125 C-1.07410156 7.03445312 -1.08570312 5.94390625 -1.09765625 4.8203125 C-1 2 -1 2 0 0 Z " fill="#ACD5B6" transform="translate(21,6)"/>
<path d="M0 0 C3.3 0 6.6 0 10 0 C10.125 5.75 10.125 5.75 9 8 C6.36 8 3.72 8 1 8 C0.67 5.36 0.34 2.72 0 0 Z " fill="#FEC39B" transform="translate(19,21)"/>
<path d="M0 0 C0.474375 0.495 0.94875 0.99 1.4375 1.5 C2.75923698 3.11542197 2.75923698 3.11542197 4 3 C4 8.61 4 14.22 4 20 C3.67 20 3.34 20 3 20 C2.95101563 19.22914062 2.90203125 18.45828125 2.8515625 17.6640625 C2.77679687 16.66117188 2.70203125 15.65828125 2.625 14.625 C2.55539063 13.62726562 2.48578125 12.62953125 2.4140625 11.6015625 C2.23636036 8.84491121 2.23636036 8.84491121 0 7 C-2.10820797 7.3185177 -2.10820797 7.3185177 -4 8 C-4 6.35 -4 4.7 -4 3 C-3.01 3.33 -2.02 3.66 -1 4 C-0.67 2.68 -0.34 1.36 0 0 Z " fill="#80B78F" transform="translate(24,0)"/>
<path d="M0 0 C2.31 0 4.62 0 7 0 C7.33 1.32 7.66 2.64 8 4 C3.71 4 -0.58 4 -5 4 C-5 3.34 -5 2.68 -5 2 C-3.35 2 -1.7 2 0 2 C0 1.34 0 0.68 0 0 Z " fill="#9FAFBF" transform="translate(11,24)"/>
<path d="M0 0 C0.33 0 0.66 0 1 0 C1 4.29 1 8.58 1 13 C0.01 13 -0.98 13 -2 13 C-1.85851011 11.3954444 -1.71164314 9.79136233 -1.5625 8.1875 C-1.48128906 7.29417969 -1.40007813 6.40085937 -1.31640625 5.48046875 C-1 3 -1 3 0 0 Z " fill="#B9DFBC" transform="translate(26,7)"/>
</svg>
