<?xml version="1.0" encoding="UTF-8"?>
<svg version="1.1" xmlns="http://www.w3.org/2000/svg" width="32" height="32">
<path d="M0 0 C0.721875 0.00257812 1.44375 0.00515625 2.1875 0.0078125 C2.909375 0.00523438 3.63125 0.00265625 4.375 0 C6.1875 0.1328125 6.1875 0.1328125 7.1875 1.1328125 C9.03641946 1.36645131 10.89238031 1.54584885 12.75 1.6953125 C13.76191406 1.77910156 14.77382813 1.86289062 15.81640625 1.94921875 C16.99009766 2.04009766 16.99009766 2.04009766 18.1875 2.1328125 C18.1875 5.1028125 18.1875 8.0728125 18.1875 11.1328125 C11.7525 11.6278125 11.7525 11.6278125 5.1875 12.1328125 C5.5175 12.7928125 5.8475 13.4528125 6.1875 14.1328125 C6.25842842 16.3401048 6.27165025 18.54948702 6.25 20.7578125 C6.24097656 21.94632813 6.23195313 23.13484375 6.22265625 24.359375 C6.21105469 25.27460938 6.19945313 26.18984375 6.1875 27.1328125 C7.5075 27.1328125 8.8275 27.1328125 10.1875 27.1328125 C10.1875 22.1828125 10.1875 17.2328125 10.1875 12.1328125 C12.1675 12.1328125 14.1475 12.1328125 16.1875 12.1328125 C17.71940797 15.19662844 17.28993613 18.40247116 17.25 21.7578125 C17.229375 24.1915625 17.20875 26.6253125 17.1875 29.1328125 C7.6175 29.1328125 -1.9525 29.1328125 -11.8125 29.1328125 C-11.8125 23.5228125 -11.8125 17.9128125 -11.8125 12.1328125 C-12.4725 12.1328125 -13.1325 12.1328125 -13.8125 12.1328125 C-13.8125 8.8328125 -13.8125 5.5328125 -13.8125 2.1328125 C-13.03003906 2.07222656 -12.24757813 2.01164063 -11.44140625 1.94921875 C-10.42949219 1.86542969 -9.41757813 1.78164063 -8.375 1.6953125 C-7.36566406 1.61410156 -6.35632813 1.53289063 -5.31640625 1.44921875 C-2.7838199 1.12918834 -2.35499235 0.17256409 0 0 Z M-5.8125 12.1328125 C-5.4825 17.0828125 -5.1525 22.0328125 -4.8125 27.1328125 C-3.4925 27.1328125 -2.1725 27.1328125 -0.8125 27.1328125 C-0.8125 22.1828125 -0.8125 17.2328125 -0.8125 12.1328125 C-2.4625 12.1328125 -4.1125 12.1328125 -5.8125 12.1328125 Z " fill="#585E66" transform="translate(13.8125,-0.1328125)"/>
<path d="M0 0 C1.91015625 0.23046875 1.91015625 0.23046875 3.91015625 2.23046875 C6.56552997 2.79566878 9.20160338 2.96835073 11.91015625 3.23046875 C11.91015625 4.55046875 11.91015625 5.87046875 11.91015625 7.23046875 C4.98015625 7.23046875 -1.94984375 7.23046875 -9.08984375 7.23046875 C-2.15984375 7.56046875 4.77015625 7.89046875 11.91015625 8.23046875 C11.91015625 8.89046875 11.91015625 9.55046875 11.91015625 10.23046875 C4.32015625 10.23046875 -3.26984375 10.23046875 -11.08984375 10.23046875 C-10.42984375 11.55046875 -9.76984375 12.87046875 -9.08984375 14.23046875 C-8.89453125 17.46484375 -8.89453125 17.46484375 -8.96484375 20.98046875 C-8.98289062 22.1509375 -9.0009375 23.32140625 -9.01953125 24.52734375 C-9.05433594 25.86539062 -9.05433594 25.86539062 -9.08984375 27.23046875 C-9.74984375 27.23046875 -10.40984375 27.23046875 -11.08984375 27.23046875 C-11.41984375 27.89046875 -11.74984375 28.55046875 -12.08984375 29.23046875 C-13.40984375 29.23046875 -14.72984375 29.23046875 -16.08984375 29.23046875 C-16.08984375 23.62046875 -16.08984375 18.01046875 -16.08984375 12.23046875 C-16.74984375 12.23046875 -17.40984375 12.23046875 -18.08984375 12.23046875 C-18.08984375 8.93046875 -18.08984375 5.63046875 -18.08984375 2.23046875 C-17.30738281 2.16988281 -16.52492188 2.10929688 -15.71875 2.046875 C-14.70683594 1.96308594 -13.69492188 1.87929688 -12.65234375 1.79296875 C-11.64300781 1.71175781 -10.63367188 1.63054688 -9.59375 1.546875 C-6.24531392 1.12374969 -3.69481825 0.07376225 0 0 Z " fill="#798793" transform="translate(18.08984375,-0.23046875)"/>
<path d="M0 0 C1.98 0 3.96 0 6 0 C7.53266582 3.06533164 7.10276471 6.26754272 7.0625 9.625 C7.05798828 10.33140625 7.05347656 11.0378125 7.04882812 11.765625 C7.03703875 13.51045275 7.01910324 15.255237 7 17 C2.71 17 -1.58 17 -6 17 C-6 12.38 -6 7.76 -6 3 C-5.34 2.67 -4.68 2.34 -4 2 C-4 6.29 -4 10.58 -4 15 C-2.68 15 -1.36 15 0 15 C0 10.05 0 5.1 0 0 Z " fill="#6A879E" transform="translate(24,12)"/>
<path d="M0 0 C0.70125 0.00515625 1.4025 0.0103125 2.125 0.015625 C2.82625 0.01046875 3.5275 0.0053125 4.25 0 C6.125 0.265625 6.125 0.265625 8.125 2.265625 C10.78037372 2.83082503 13.41644713 3.00350698 16.125 3.265625 C16.125 4.585625 16.125 5.905625 16.125 7.265625 C6.885 7.265625 -2.355 7.265625 -11.875 7.265625 C-11.875 5.945625 -11.875 4.625625 -11.875 3.265625 C-10.59625 3.141875 -9.3175 3.018125 -8 2.890625 C-4.48347205 2.55031584 -3.13687044 0.44438998 0 0 Z " fill="#686D74" transform="translate(13.875,-0.265625)"/>
<path d="M0 0 C10.56 0 21.12 0 32 0 C32 0.66 32 1.32 32 2 C21.44 2 10.88 2 0 2 C0 1.34 0 0.68 0 0 Z " fill="#434A54" transform="translate(0,30)"/>
<path d="M0 0 C3.125 0.25 3.125 0.25 5 1.625 C6.125 3.25 6.125 3.25 6.125 5.25 C2.165 5.25 -1.795 5.25 -5.875 5.25 C-3.39772727 0.29545455 -3.39772727 0.29545455 0 0 Z " fill="#F8F8F8" transform="translate(15.875,1.75)"/>
<path d="M0 0 C2.31 0 4.62 0 7 0 C7 0.99 7 1.98 7 3 C4.69 3 2.38 3 0 3 C0 2.01 0 1.02 0 0 Z " fill="#F9F9F9" transform="translate(23,4)"/>
<path d="M0 0 C2.31 0 4.62 0 7 0 C7 0.99 7 1.98 7 3 C4.69 3 2.38 3 0 3 C0 2.01 0 1.02 0 0 Z " fill="#F8F9F9" transform="translate(2,4)"/>
</svg>
