<?xml version="1.0" encoding="UTF-8"?>
<svg version="1.1" xmlns="http://www.w3.org/2000/svg" width="32" height="32">
<path d="M0 0 C1.14597656 -0.01224609 2.29195312 -0.02449219 3.47265625 -0.03710938 C4.57996094 -0.03904297 5.68726563 -0.04097656 6.828125 -0.04296875 C7.84293945 -0.04707764 8.85775391 -0.05118652 9.90332031 -0.05541992 C12.75 0.1875 12.75 0.1875 17.75 2.1875 C17.75 12.0875 17.75 21.9875 17.75 32.1875 C7.19 32.1875 -3.37 32.1875 -14.25 32.1875 C-14.25 31.5275 -14.25 30.8675 -14.25 30.1875 C-13.59 30.1875 -12.93 30.1875 -12.25 30.1875 C-12.22315321 27.54159986 -12.20323643 24.89596904 -12.1875 22.25 C-12.17912109 21.49525391 -12.17074219 20.74050781 -12.16210938 19.96289062 C-12.15347559 18.03755687 -12.19775667 16.11214419 -12.25 14.1875 C-12.58 13.8575 -12.91 13.5275 -13.25 13.1875 C-13.34873816 11.18950428 -13.37971799 9.18792842 -13.375 7.1875 C-13.37757812 6.094375 -13.38015625 5.00125 -13.3828125 3.875 C-13.07366151 -2.38076111 -4.85815501 0.00269598 0 0 Z " fill="#F0F1F1" transform="translate(14.25,-0.1875)"/>
<path d="M0 0 C1.5631897 0.00785522 1.5631897 0.00785522 3.15795898 0.01586914 C4.28266602 0.0190918 5.40737305 0.02231445 6.56616211 0.02563477 C7.75016602 0.03401367 8.93416992 0.04239258 10.15405273 0.05102539 C11.34192383 0.05553711 12.52979492 0.06004883 13.75366211 0.06469727 C16.69967499 0.07652864 19.64558954 0.09301252 22.59155273 0.11352539 C23.83042821 2.59127634 23.75896943 4.35006246 23.77905273 7.11352539 C23.79323242 8.00040039 23.80741211 8.88727539 23.82202148 9.80102539 C23.59155273 12.11352539 23.59155273 12.11352539 21.59155273 14.11352539 C19.17724609 14.35644531 19.17724609 14.35644531 16.18139648 14.34399414 C15.10954102 14.34206055 14.03768555 14.34012695 12.93334961 14.33813477 C11.80993164 14.32588867 10.68651367 14.31364258 9.52905273 14.30102539 C7.838125 14.30005859 7.838125 14.30005859 6.11303711 14.29907227 C-2.26831409 14.25365856 -2.26831409 14.25365856 -3.40844727 13.11352539 C-3.50718543 11.11552967 -3.53816526 9.11395381 -3.53344727 7.11352539 C-3.53602539 6.02040039 -3.53860352 4.92727539 -3.54125977 3.80102539 C-3.36124813 0.15843694 -3.36124813 0.15843694 0 0 Z " fill="#5F6470" transform="translate(4.408447265625,-0.113525390625)"/>
<path d="M0 0 C0.66 0 1.32 0 2 0 C2 7.26 2 14.52 2 22 C-8.56 22 -19.12 22 -30 22 C-30 21.34 -30 20.68 -30 20 C-29.34 20 -28.68 20 -28 20 C-28 15.71 -28 11.42 -28 7 C-21.84765625 6.90234375 -21.84765625 6.90234375 -20 7 C-19 8 -19 8 -18.90234375 10.72265625 C-18.95117188 15.36132812 -18.95117188 15.36132812 -19 20 C-12.73 20 -6.46 20 0 20 C0 13.4 0 6.8 0 0 Z " fill="#62676F" transform="translate(30,10)"/>
<path d="M0 0 C4.95 0 9.9 0 15 0 C15 3.63 15 7.26 15 11 C10.05 11 5.1 11 0 11 C0 7.37 0 3.74 0 0 Z " fill="#B7BABD" transform="translate(13,17)"/>
<path d="M0 0 C1.65 0 3.3 0 5 0 C5 3.96 5 7.92 5 12 C3.35 12 1.7 12 0 12 C0 8.04 0 4.08 0 0 Z " fill="#F5F6F6" transform="translate(4,19)"/>
<path d="M0 0 C1.65322266 0.01740234 1.65322266 0.01740234 3.33984375 0.03515625 C4.99693359 0.04869141 4.99693359 0.04869141 6.6875 0.0625 C7.54214844 0.07410156 8.39679687 0.08570313 9.27734375 0.09765625 C9.27734375 0.42765625 9.27734375 0.75765625 9.27734375 1.09765625 C7.62734375 1.09765625 5.97734375 1.09765625 4.27734375 1.09765625 C4.27734375 4.72765625 4.27734375 8.35765625 4.27734375 12.09765625 C3.94734375 12.09765625 3.61734375 12.09765625 3.27734375 12.09765625 C3.27734375 8.79765625 3.27734375 5.49765625 3.27734375 2.09765625 C1.62734375 2.09765625 -0.02265625 2.09765625 -1.72265625 2.09765625 C-1.63565575 3.72366566 -1.52747815 5.34855303 -1.41015625 6.97265625 C-1.35214844 7.87757813 -1.29414062 8.7825 -1.234375 9.71484375 C-0.93445235 12.45987226 -0.93445235 12.45987226 2.27734375 14.09765625 C0.6112247 14.14037725 -1.0564851 14.13829457 -2.72265625 14.09765625 C-3.72265625 13.09765625 -3.72265625 13.09765625 -3.85546875 10.41015625 C-3.85289063 9.31703125 -3.8503125 8.22390625 -3.84765625 7.09765625 C-3.85023437 6.00453125 -3.8528125 4.91140625 -3.85546875 3.78515625 C-3.67583417 0.15019765 -3.64305585 0.13066915 0 0 Z " fill="#4A5058" transform="translate(4.72265625,-0.09765625)"/>
<path d="M0 0 C1.65 0 3.3 0 5 0 C5 3.3 5 6.6 5 10 C3.35 10 1.7 10 0 10 C0 6.7 0 3.4 0 0 Z " fill="#F1F1F2" transform="translate(3,2)"/>
<path d="M0 0 C1.32 0 2.64 0 4 0 C4 3.3 4 6.6 4 10 C2.68 10 1.36 10 0 10 C0 6.7 0 3.4 0 0 Z " fill="#C4C0F0" transform="translate(22,2)"/>
<path d="M0 0 C1.32 0 2.64 0 4 0 C4 3.3 4 6.6 4 10 C2.68 10 1.36 10 0 10 C0 6.7 0 3.4 0 0 Z " fill="#FBFBFB" transform="translate(16,2)"/>
<path d="M0 0 C1.32 0 2.64 0 4 0 C4 3.3 4 6.6 4 10 C2.68 10 1.36 10 0 10 C0 6.7 0 3.4 0 0 Z " fill="#C5C1F2" transform="translate(10,2)"/>
<path d="M0 0 C0.66 0.33 1.32 0.66 2 1 C2.4140625 4.16015625 2.4140625 4.16015625 2.625 8.0625 C2.69976563 9.35285156 2.77453125 10.64320312 2.8515625 11.97265625 C2.90054687 12.97167969 2.94953125 13.97070312 3 15 C1.35 15 -0.3 15 -2 15 C-2 14.34 -2 13.68 -2 13 C-1.34 13 -0.68 13 0 13 C0 8.71 0 4.42 0 0 Z " fill="#434B53" transform="translate(2,17)"/>
<path d="M0 0 C0.33 0 0.66 0 1 0 C1 3.3 1 6.6 1 10 C1.99 10.33 2.98 10.66 4 11 C1.1875 11.625 1.1875 11.625 -2 12 C-2.99 11.34 -3.98 10.68 -5 10 C-3.35 10 -1.7 10 0 10 C0 6.7 0 3.4 0 0 Z " fill="#9193AB" transform="translate(9,2)"/>
</svg>
